<?xml version="1.0" encoding="utf-8"?>
<!-- Generator: Adobe Illustrator 19.2.0, SVG Export Plug-In . SVG Version: 6.00 Build 0)  -->
<!DOCTYPE svg PUBLIC "-//W3C//DTD SVG 1.1//EN" "http://www.w3.org/Graphics/SVG/1.1/DTD/svg11.dtd">
<svg version="1.1" id="Layer_1" xmlns="http://www.w3.org/2000/svg" xmlns:xlink="http://www.w3.org/1999/xlink" x="0px" y="0px"
	 viewBox="0 0 100 100" style="enable-background:new 0 0 100 100;" xml:space="preserve">
<style type="text/css">
	.st0{fill:#333F4D;}
	.st1{display:none;}
	.st2{display:inline;}
	.st3{fill:#1D1D1B;}
</style>
<path class="st0" d="M80,63.9c-0.5-7.2-1.4-11.5-1.9-14.3c-0.2-1.1-0.4-1.9-0.5-2.7l1.9-25.5c0.3-3.9-2.7-7.4-6.6-7.6
	c-3.9-0.3-7.4,2.7-7.7,6.6l-1.4,19.2c-1.3-1.1-3-1.8-4.9-1.7c-2,0.1-3.7,0.9-5,2.2c-0.4-0.9-1-1.8-1.7-2.5c-1.4-1.3-3.2-2-5.1-2
	c-2,0.1-3.8,0.9-5.1,2.3l-3.7-23.9c-0.3-1.9-1.3-3.5-2.8-4.7c-1.5-1.1-3.4-1.6-5.3-1.3c-1.9,0.3-3.6,1.3-4.7,2.8
	c-1.1,1.5-1.6,3.4-1.3,5.3l4.5,29.4c-0.3,1.3-1.7,8-2.4,14.2c-1.6,1.6-2.7,4.5-2.9,7.5c-0.1,3.1,0.7,5.8,2.4,7.6
	c2,5.5,5.3,9.9,9.7,12.8c4.1,2.7,9.3,4.1,14.6,4.2c0.3,0,0.6,0,0.9,0c2.6,0,3,0,4.7-0.1c3.7-0.3,11.9-2.9,16.2-7.6
	C77.2,78.1,80.4,70.2,80,63.9z M58.8,40.3c0,0,0.1,0,0.1,0c2.1,0,3.8,1.4,4.4,3.3l0,0c0.1,0.2,0.1,0.4,0.1,0.7c0,0.1,0,0.3,0,0.4
	l0.6,21.7c0.1,2.5-1.9,4.6-4.4,4.7c0,0-0.1,0-0.1,0c-2.5,0-4.5-2-4.6-4.4L54.9,61l1-0.5c0.1,0,0.2-0.1,0.2-0.2
	c1.6-1.3,2.7-3.2,2.9-5.3c0.2-2.1-0.4-4.2-1.8-5.8c-0.8-0.9-1.7-1.6-2.7-2.1L54.4,45C54.3,42.4,56.3,40.4,58.8,40.3z M52.3,62.3
	l0.1,1.9c0.1,2.5-1.9,4.6-4.4,4.7c-1.4,0-2.8-0.6-3.6-1.6l1.3-1.6L52.3,62.3z M47.1,38c1.2,0,2.4,0.4,3.3,1.2c0.9,0.8,1.4,2,1.4,3.2
	l0.1,2.6c0,0,0,0,0,0l0,1.3c-2-0.2-4,0.3-5.7,1.6l-3.4,1.5l-0.2-6.8C42.5,40.2,44.5,38.1,47.1,38z M26.6,15.6
	c-0.2-1.2,0.1-2.4,0.8-3.4c0.7-1,1.8-1.6,3-1.8c1.2-0.2,2.4,0.1,3.4,0.8c1,0.7,1.6,1.8,1.8,3L40,42.7c0,0,0,0.1,0,0.1l0.2,7.9
	l-2.5,1.1c-0.1,0-0.1,0.1-0.2,0.1l-8.5,5.6c0.8-6,2.1-11.8,2.1-11.8c0-0.2,0-0.3,0-0.5L26.6,15.6z M70,82.2
	c-3.8,4.2-8.2,6.1-12.3,6.7c-3.8,0.5-6.8,0.3-6.8,0.3C40.3,89.4,32.2,84,28.4,74.4c-0.2-0.5-0.6-1.3-0.7-1.4
	c-1.8-1.8-1.9-4.4-1.9-5.8c0.1-2.5,1.1-5,2.3-6l10.7-7.1l3.2-1.4c0,0,0,0,0,0l5.3-2.4c0.1,0,0.2-0.1,0.3-0.2
	c2.3-1.9,5.6-1.5,7.5,0.7c0.9,1.1,1.3,2.5,1.2,3.9c-0.1,1.4-0.8,2.6-1.8,3.5l-10.4,5.1c-0.2,0.1-0.3,0.2-0.4,0.3l-2.1,2.6
	c0,0,0,0,0,0l-2.9,3.5c-0.5,0.6-0.4,1.4,0.2,1.8c0.6,0.5,1.4,0.4,1.8-0.2l1.9-2.3c1.3,1.4,3.2,2.2,5.2,2.2c0.1,0,0.1,0,0.2,0
	c2-0.1,3.7-0.9,5-2.2c1.1,2.6,3.7,4.4,6.6,4.4c0.1,0,0.1,0,0.2,0c1.9-0.1,3.7-0.8,5-2.2c1.3-1.4,2-3.2,2-5.1l-0.6-21.7
	c0-0.4-0.1-0.8-0.1-1.3l1.7-22.9c0.2-2.5,2.4-4.4,4.9-4.2c2.5,0.2,4.4,2.4,4.2,4.9l-1.9,25.7c0,0.1,0,0.2,0,0.3
	c0.1,0.9,0.3,1.9,0.6,3c0.6,2.9,1.4,6.9,1.9,14C77.7,69.7,74.9,76.9,70,82.2z"/>
<g class="st1">
	<g class="st2">
		<path class="st3" d="M62.4,56.1c-3,0-5.4-2.4-5.4-5.4V12.6c0-3,2.4-5.4,5.4-5.4c3,0,5.4,2.4,5.4,5.4v38.1
			C67.9,53.7,65.5,56.1,62.4,56.1z"/>
	</g>
	<g class="st2">
		<path class="st3" d="M47.9,56.1c-3,0-5.4-2.4-5.4-5.4V34.1c0-3,2.4-5.4,5.4-5.4c3,0,5.4,2.4,5.4,5.4v16.6
			C53.4,53.7,51,56.1,47.9,56.1z"/>
	</g>
	<g class="st2">
		<path class="st3" d="M33.6,56.1c-3,0-5.4-2.4-5.4-5.4V35.6c0-3,2.4-5.4,5.4-5.4c3,0,5.4,2.4,5.4,5.4v15.1
			C39,53.7,36.6,56.1,33.6,56.1z"/>
	</g>
	<g class="st2">
		<path class="st3" d="M24.6,20.8l0,35.7l0,8.9l0,4.5l0,1l0,1c0,0.6,0.1,1.3,0.1,1.9c0.3,2.4,0.9,4.7,1.8,6.2c0.5,0.7,1,1.3,1.5,1.7
			c0.3,0.2,0.5,0.3,0.8,0.4c0.1,0,0.3,0.1,0.4,0.1c0.1,0,0.1,0,0.1,0c0,0,0,0,0,0l0,0l0,0l-0.2,0c3,0,5.4,2.4,5.4,5.4
			c0,3-2.4,5.4-5.4,5.4l-0.3,0l-0.2,0l-0.3,0c-0.2,0-0.4,0-0.5-0.1c-0.3,0-0.7-0.1-1-0.2c-0.6-0.1-1.2-0.3-1.8-0.5
			c-1.1-0.4-2.2-1-3.1-1.6c-1.9-1.3-3.4-3-4.6-4.8c-1.1-1.8-1.9-3.6-2.4-5.4c-0.5-1.8-0.8-3.6-1-5.3c-0.1-0.9-0.2-1.7-0.2-2.6
			c0-0.4,0-0.8,0-1.3l0-1.2l0-4.5l0-8.9l0-35.7c0-3,2.4-5.5,5.4-5.5C22.2,15.3,24.6,17.8,24.6,20.8L24.6,20.8z"/>
	</g>
	<g class="st2">
		<path class="st3" d="M85.8,59.9C85.8,59.9,85.8,59.9,85.8,59.9L85.8,59.9c-0.1,0.1-0.2,0.1-0.2,0.1c-0.1,0.1-0.3,0.1-0.4,0.2
			c-0.3,0.1-0.6,0.2-1,0.4c-0.6,0.3-1.3,0.6-1.8,1c-1.2,0.8-2.1,1.7-2.9,2.8c-0.8,1.1-1.4,2.4-1.8,3.8c-0.2,0.7-0.4,1.5-0.5,2.3
			c-0.1,0.4-0.1,0.8-0.1,1.2c0,0.4,0,0.8-0.1,1.3c-0.1,2.3-0.3,4.6-0.8,7.1c-0.3,1.3-0.7,2.6-1.3,3.9c-0.6,1.3-1.4,2.8-2.6,4.1
			c-1.2,1.3-2.7,2.4-4.3,3.1c-1.6,0.7-3.1,1.1-4.5,1.3c-2.7,0.4-5,0.2-6.9,0.2c-3,0-5.5-2.4-5.5-5.4c0-3,2.4-5.5,5.4-5.5h0h0
			c2.2,0,4.1,0,5.4-0.2c0.7-0.1,1.1-0.2,1.4-0.4c0.3-0.1,0.5-0.3,0.7-0.5c0.2-0.2,0.4-0.6,0.7-1.1c0.2-0.5,0.4-1.2,0.6-1.9
			c0.3-1.5,0.5-3.3,0.6-5.1c0-0.5,0-1.1,0.1-1.7c0-0.6,0.1-1.2,0.2-1.9c0.2-1.2,0.4-2.5,0.7-3.8c0.7-2.5,1.8-5,3.4-7.3
			c1.6-2.2,3.6-4.2,5.8-5.7c1.1-0.8,2.3-1.4,3.5-1.9c0.6-0.3,1.2-0.5,1.9-0.7c0.3-0.1,0.7-0.2,1-0.3c0.2,0,0.4-0.1,0.6-0.1l0.3,0
			l0.4-0.1c3-0.5,5.8,1.4,6.3,4.4C90.7,56.5,88.7,59.3,85.8,59.9z"/>
	</g>
</g>
</svg>
